<svg width="325" height="440" viewBox="0 0 325 440" fill="none" xmlns="http://www.w3.org/2000/svg">
<rect width="325" height="440" fill="#C9E7F8"/>
<path d="M162.936 131.547C173.876 131.547 183.758 128.49 190.891 123.574C198.027 118.656 202.372 111.912 202.372 104.523C202.372 97.1346 198.027 90.3909 190.891 85.4731C183.758 80.5568 173.876 77.5 162.936 77.5C151.996 77.5 142.114 80.5568 134.981 85.4731C127.845 90.3909 123.5 97.1346 123.5 104.523C123.5 111.912 127.845 118.656 134.981 123.574C142.114 128.49 151.996 131.547 162.936 131.547Z" stroke="#A39DCB"/>
<path d="M162.936 176.88C173.876 176.88 183.758 173.823 190.891 168.907C198.027 163.989 202.372 157.245 202.372 149.857C202.372 142.468 198.027 135.724 190.891 130.806C183.758 125.89 173.876 122.833 162.936 122.833C151.996 122.833 142.114 125.89 134.981 130.806C127.845 135.724 123.5 142.468 123.5 149.857C123.5 157.245 127.845 163.989 134.981 168.907C142.114 173.823 151.996 176.88 162.936 176.88Z" stroke="#A39DCB"/>
<path d="M162.936 222.213C173.876 222.213 183.758 219.156 190.891 214.24C198.027 209.322 202.372 202.578 202.372 195.19C202.372 187.801 198.027 181.057 190.891 176.139C183.758 171.223 173.876 168.166 162.936 168.166C151.996 168.166 142.114 171.223 134.981 176.139C127.845 181.057 123.5 187.801 123.5 195.19C123.5 202.578 127.845 209.322 134.981 214.24C142.114 219.156 151.996 222.213 162.936 222.213Z" stroke="#A39DCB"/>
<path d="M162.936 268.625C173.876 268.625 183.758 265.568 190.891 260.652C198.027 255.734 202.372 248.991 202.372 241.602C202.372 234.213 198.027 227.469 190.891 222.551C183.758 217.635 173.876 214.578 162.936 214.578C151.996 214.578 142.114 217.635 134.981 222.551C127.845 227.469 123.5 234.213 123.5 241.602C123.5 248.991 127.845 255.734 134.981 260.652C142.114 265.568 151.996 268.625 162.936 268.625Z" stroke="#A39DCB"/>
<path d="M162.936 315.037C173.876 315.037 183.758 311.98 190.891 307.064C198.027 302.146 202.372 295.403 202.372 288.014C202.372 280.625 198.027 273.881 190.891 268.963C183.758 264.047 173.876 260.99 162.936 260.99C151.996 260.99 142.114 264.047 134.981 268.963C127.845 273.881 123.5 280.625 123.5 288.014C123.5 295.403 127.845 302.146 134.981 307.064C142.114 311.98 151.996 315.037 162.936 315.037Z" stroke="#A39DCB"/>
<path d="M162.936 361.96C173.876 361.96 183.758 358.903 190.891 353.987C198.027 349.069 202.372 342.325 202.372 334.937C202.372 327.548 198.027 320.804 190.891 315.886C183.758 310.97 173.876 307.913 162.936 307.913C151.996 307.913 142.114 310.97 134.981 315.886C127.845 320.804 123.5 327.548 123.5 334.937C123.5 342.325 127.845 349.069 134.981 353.987C142.114 358.903 151.996 361.96 162.936 361.96Z" stroke="#A39DCB"/>
<circle cx="162.693" cy="104.693" r="3.69252" stroke="#2DC289"/>
</svg>
