<svg width="325" height="440" viewBox="0 0 325 440" fill="none" xmlns="http://www.w3.org/2000/svg">
<rect width="325" height="440" fill="#C9E7F8"/>
<path d="M109 145.5C143.44 145.5 171.5 178.77 171.5 220C171.5 261.23 143.44 294.5 109 294.5C74.5603 294.5 46.5 261.23 46.5 220C46.5 178.77 74.5603 145.5 109 145.5Z" stroke="#A39DCB"/>
<path d="M217 145.5C251.44 145.5 279.5 178.77 279.5 220C279.5 261.23 251.44 294.5 217 294.5C182.56 294.5 154.5 261.23 154.5 220C154.5 178.77 182.56 145.5 217 145.5Z" stroke="#A39DCB"/>
<path d="M181 145.5C215.44 145.5 243.5 178.77 243.5 220C243.5 261.23 215.44 294.5 181 294.5C146.56 294.5 118.5 261.23 118.5 220C118.5 178.77 146.56 145.5 181 145.5Z" stroke="#A39DCB"/>
<path d="M145 145.5C179.44 145.5 207.5 178.77 207.5 220C207.5 261.23 179.44 294.5 145 294.5C110.56 294.5 82.5 261.23 82.5 220C82.5 178.77 110.56 145.5 145 145.5Z" stroke="#A39DCB"/>
<circle cx="162.547" cy="180.547" r="4.54668" fill="#C9E7F8" stroke="#EE5F79"/>
<circle cx="162.598" cy="260.547" r="4.54668" fill="#C9E7F8" stroke="#2DC289"/>
</svg>
